<svg width="100" height="100" viewBox="0 0 100 100" fill="none" xmlns="http://www.w3.org/2000/svg">
<g clip-path="url(#clip0)">
<path d="M75.5118 56.2111V72.5639H18.0381C16.3961 72.5639 15.0648 71.2327 15.0648 69.5907C15.0648 68.1471 15.0648 57.6519 15.0648 56.2111L45.2884 52.2466L75.5118 56.2111Z" fill="#8B9BA9"/>
<path d="M21.0115 55.4182V66.6174H75.5118V72.5639H18.0381C16.3961 72.5639 15.0649 71.2327 15.0649 69.5907C15.0649 68.2226 15.0649 57.553 15.0649 56.2111L21.0115 55.4182Z" fill="#6C7A88"/>
<path d="M12.3891 17.0297H66.5916C68.2337 17.0297 69.5649 18.3609 69.5649 20.003V29.2686H89.3934C92.1748 29.2686 94.5847 31.1968 95.195 33.9104L97.4454 43.9175C98.0234 46.488 98.3151 49.1148 98.3151 51.7494V72.5639H69.5649C69.5649 72.0801 69.5649 64.7262 69.5649 56.2111H12.3889C10.7468 56.2111 9.41562 54.8799 9.41562 53.2378V20.003C9.41582 18.3607 10.7468 17.0297 12.3891 17.0297Z" fill="#1EED6A"/>
<path d="M1.48658 43.4424H9.41562V38.107H5.4511C4.62989 38.107 3.96448 37.4414 3.96448 36.6204C3.96448 35.7994 4.62989 35.1338 5.4511 35.1338H9.41562V29.7984H3.46893C2.64773 29.7984 1.98232 29.1328 1.98232 28.3118C1.98232 27.4908 2.64773 26.8252 3.46893 26.8252H9.41562V21.4896H1.48658C0.665367 21.4896 -4.57764e-05 20.824 -4.57764e-05 20.003C-4.57764e-05 19.182 0.665367 18.5163 1.48658 18.5163H9.8166C10.331 17.6285 11.289 17.0297 12.3889 17.0297H15.3621V50.2648H69.5649C69.5649 39.8055 69.5649 29.5508 69.5649 29.2684H75.5114V56.2113H79.9712C84.3054 56.2113 88.2481 57.9094 91.1774 60.6711H98.3151V72.5641H69.5649C69.5649 72.1607 69.5649 64.7732 69.5649 56.2113H51.239H12.3889C11.289 56.2113 10.331 55.6125 9.8166 54.7247H3.46893C2.64773 54.7247 1.98232 54.0591 1.98232 53.238C1.98232 52.417 2.64773 51.7514 3.46893 51.7514H9.41562V46.4158H1.48658C0.665367 46.4158 -4.57764e-05 45.7502 -4.57764e-05 44.9292C-4.57764e-05 44.1082 0.665367 43.4424 1.48658 43.4424Z" fill="url(#paint0_linear)"/>
<path d="M98.5134 72.5639H87.6321V66.6174H98.5134C99.3344 66.6174 100 67.283 100 68.1041V71.0773C100 71.8985 99.3344 72.5639 98.5134 72.5639Z" fill="#8B9BA9"/>
<path d="M75.5115 35.2148H89.7481L92.5749 47.7851H75.5115V35.2148Z" fill="#9DC6FB"/>
<path d="M81.1033 41.8386H91.2377L92.5749 47.7851H75.5115V35.2148H81.1033V41.8386Z" fill="#80B4FB"/>
<path d="M29.4359 82.9702C23.6886 82.9702 19.0295 78.3111 19.0295 72.5639C19.0295 66.8166 23.6886 62.1575 29.4359 62.1575C35.1831 62.1575 39.8422 66.8166 39.8422 72.5639C39.8422 78.3111 35.1831 82.9702 29.4359 82.9702Z" fill="#4D5967"/>
<path d="M27.3082 62.3771C28.5281 64.6306 28.1869 67.5055 26.2821 69.4102L32.5893 75.7174C34.494 73.8126 37.3689 73.4712 39.6226 74.6913C38.6379 79.4122 34.4448 82.9702 29.4357 82.9702C23.6975 82.9702 19.0294 78.302 19.0294 72.5638C19.0296 67.5547 22.5873 63.3618 27.3082 62.3771Z" fill="#35404A"/>
<path d="M29.436 77.0237C26.9728 77.0237 24.9761 75.0269 24.9761 72.5638C24.9761 70.1007 26.9728 68.1039 29.436 68.1039C31.8991 68.1039 33.8958 70.1007 33.8958 72.5638C33.8958 75.0269 31.8991 77.0237 29.436 77.0237Z" fill="#FFF9EB"/>
<path d="M79.9713 82.9702C74.224 82.9702 69.5649 78.3111 69.5649 72.5639C69.5649 66.8166 74.224 62.1575 79.9713 62.1575C85.7185 62.1575 90.3776 66.8166 90.3776 72.5639C90.3776 78.3111 85.7185 82.9702 79.9713 82.9702Z" fill="#4D5967"/>
<path d="M77.8438 62.3771C79.0637 64.6306 78.7225 67.5055 76.8177 69.4102L83.1249 75.7174C85.0296 73.8126 87.9045 73.4712 90.1582 74.6913C89.1735 79.4122 84.9804 82.9702 79.9713 82.9702C74.2331 82.9702 69.5649 78.302 69.5649 72.5638C69.5649 67.5547 73.1227 63.3618 77.8438 62.3771Z" fill="#35404A"/>
<path d="M79.9713 77.0237C77.5082 77.0237 75.5114 75.0269 75.5114 72.5638C75.5114 70.1007 77.5082 68.1039 79.9713 68.1039C82.4344 68.1039 84.4312 70.1007 84.4312 72.5638C84.4312 75.0269 82.4344 77.0237 79.9713 77.0237Z" fill="#FFF9EB"/>
<path d="M24.4589 33.6473V35.1339H26.3418C27.1628 35.1339 27.828 35.7991 27.828 36.6203C27.828 37.4415 27.1628 38.1069 26.3418 38.1069H24.4589V41.0798C24.4589 41.901 23.7933 42.5664 22.9725 42.5664C22.1517 42.5664 21.4863 41.9012 21.4863 41.0798V32.161C21.4863 31.34 22.1517 30.6748 22.9725 30.6748H27.5309C28.3519 30.6748 29.0171 31.34 29.0171 32.161C29.0171 32.9822 28.3519 33.6477 27.5309 33.6477H24.4589V33.6473Z" fill="#FFF9EB"/>
<path d="M38.6267 40.0333C39.2043 40.6161 39.2005 41.5574 38.6177 42.1354C38.3276 42.4226 37.9494 42.5663 37.571 42.5663C37.1884 42.5663 36.806 42.4196 36.5155 42.1265L34.0037 39.5935H33.2108V41.0797C33.2108 41.9009 32.5452 42.5663 31.7244 42.5663C30.9036 42.5663 30.2382 41.9011 30.2382 41.0797V32.161C30.2382 31.34 30.9036 30.6747 31.7244 30.6747H34.6233C37.0683 30.6747 39.0576 32.6753 39.0576 35.134C39.0576 36.5846 38.3648 37.8751 37.2946 38.6902L38.6267 40.0333ZM36.0845 35.134C36.0845 34.3142 35.4288 33.6474 34.6233 33.6474H33.2108V36.6202H34.6233C35.4288 36.6202 36.0845 35.9534 36.0845 35.134Z" fill="#FFF9EB"/>
<path d="M48.2708 41.0795C48.2708 41.9007 47.6056 42.5661 46.7846 42.5661H42.2262C41.4054 42.5661 40.74 41.9009 40.74 41.0795V32.1607C40.74 31.3397 41.4054 30.6745 42.2262 30.6745H46.7846C47.6056 30.6745 48.2708 31.3397 48.2708 32.1607C48.2708 32.9819 47.6056 33.6473 46.7846 33.6473H43.7126V35.134H45.5955C46.4165 35.134 47.0817 35.7992 47.0817 36.6204C47.0817 37.4416 46.4165 38.107 45.5955 38.107H43.7126V39.5934H46.7846C47.6056 39.5932 48.2708 40.2585 48.2708 41.0795Z" fill="#FFF9EB"/>
<path d="M57.4946 41.0795C57.4946 41.9007 56.8293 42.5661 56.0083 42.5661H51.45C50.6292 42.5661 49.9637 41.9009 49.9637 41.0795V32.1607C49.9637 31.3397 50.6292 30.6745 51.45 30.6745H56.0083C56.8293 30.6745 57.4946 31.3397 57.4946 32.1607C57.4946 32.9819 56.8293 33.6473 56.0083 33.6473H52.9364V35.134H54.8192C55.6402 35.134 56.3055 35.7992 56.3055 36.6204C56.3055 37.4416 55.6402 38.107 54.8192 38.107H52.9364V39.5934H56.0083C56.8293 39.5932 57.4946 40.2585 57.4946 41.0795Z" fill="#FFF9EB"/>
</g>
<defs>
<linearGradient id="paint0_linear" x1="47.4039" y1="53.1637" x2="51.5035" y2="85.1416" gradientUnits="userSpaceOnUse">
<stop stop-color="#3AD875"/>
<stop offset="1" stop-color="#04B947"/>
</linearGradient>
<clipPath id="clip0">
<rect width="100" height="100" fill="white" transform="matrix(-1 0 0 1 100 0)"/>
</clipPath>
</defs>
</svg>
